<?xml version="1.0" standalone="no"?>
<!DOCTYPE svg PUBLIC "-//W3C//DTD SVG 20010904//EN"
 "http://www.w3.org/TR/2001/REC-SVG-20010904/DTD/svg10.dtd">
<svg version="1.0" xmlns="http://www.w3.org/2000/svg"
 width="512.000000pt" height="512.000000pt" viewBox="0 0 512.000000 512.000000"
 preserveAspectRatio="xMidYMid meet">
<metadata>
Created by potrace 1.16, written by Peter Selinger 2001-2019
</metadata>
<g transform="translate(0.000000,512.000000) scale(0.100000,-0.100000)"
fill="#000000" stroke="none">
<path d="M1755 4736 c-440 -210 -820 -392 -845 -405 -146 -76 -269 -199 -335
-336 -78 -160 -76 -138 -72 -1090 3 -823 4 -842 25 -937 129 -566 530 -1077
1187 -1513 242 -161 505 -305 757 -416 l88 -39 88 39 c252 111 515 255 757
416 657 436 1058 947 1187 1513 21 95 22 114 25 937 4 952 6 930 -72 1090 -75
155 -191 264 -390 363 -110 55 -1595 762 -1598 761 -1 0 -362 -172 -802 -383z
m1469 -451 l657 -325 84 -83 c66 -65 92 -99 119 -157 72 -153 70 -125 74 -830
3 -557 1 -647 -13 -735 -59 -349 -209 -629 -490 -911 -254 -255 -586 -472
-999 -653 l-96 -42 -96 42 c-413 181 -745 398 -999 653 -281 282 -431 562
-490 911 -14 88 -16 178 -13 735 4 705 2 677 74 830 27 58 53 92 119 157 l84
83 653 324 c359 178 658 325 664 325 7 1 307 -145 668 -324z"/>
<path d="M2263 3329 c-51 -10 -79 -24 -116 -57 -49 -46 -57 -98 -57 -381 0
-140 -4 -251 -8 -245 -5 5 -21 90 -36 190 -31 210 -41 246 -74 279 -19 19 -35
25 -69 25 -74 0 -124 -37 -148 -109 -12 -38 -75 -423 -75 -462 0 -7 -3 -10 -6
-6 -3 3 -8 124 -10 269 -3 145 -7 277 -10 295 -2 18 -18 46 -35 63 -27 27 -37
30 -93 30 -78 0 -150 -33 -186 -87 -24 -35 -25 -42 -24 -187 2 -169 39 -702
55 -784 20 -101 95 -150 214 -139 126 12 213 74 240 172 7 27 21 116 31 198 9
81 20 147 23 147 4 0 16 -72 28 -161 25 -182 40 -223 99 -257 34 -20 49 -23
119 -19 95 5 166 36 213 92 51 63 56 98 92 629 24 358 24 399 5 440 -26 55
-93 80 -172 65z"/>
<path d="M3002 3329 c-131 -19 -232 -76 -280 -157 -24 -42 -27 -57 -27 -137 1
-71 5 -100 23 -139 67 -148 213 -259 452 -344 123 -44 154 -58 189 -88 25 -21
31 -33 31 -65 0 -54 -32 -74 -120 -74 -87 0 -137 26 -244 125 -109 101 -133
114 -219 115 -65 0 -70 -2 -97 -32 -103 -115 15 -309 246 -406 150 -64 354
-95 491 -77 117 15 183 42 247 101 67 61 96 129 96 222 0 78 -11 118 -52 187
-58 96 -189 183 -398 265 -183 72 -250 116 -250 164 0 47 32 66 109 66 86 -1
144 -27 224 -103 84 -78 110 -93 176 -99 102 -10 160 48 147 145 -22 161 -240
295 -536 332 -96 11 -119 11 -208 -1z"/>
</g>
</svg>
